<svg xmlns="http://www.w3.org/2000/svg" xmlns:xlink="http://www.w3.org/1999/xlink" width="500" zoomAndPan="magnify" viewBox="0 0 375 374.999991" height="500" preserveAspectRatio="xMidYMid meet" version="1.0"><defs><clipPath id="ed804f9204"><path d="M 70.054688 37.5 L 304.804688 37.5 L 304.804688 324 L 70.054688 324 Z M 70.054688 37.5 " clip-rule="nonzero"/></clipPath><clipPath id="edb4727899"><path d="M 188 236 L 304.804688 236 L 304.804688 337.5 L 188 337.5 Z M 188 236 " clip-rule="nonzero"/></clipPath><clipPath id="0edbfa57be"><path d="M 70.054688 236 L 189 236 L 189 337.5 L 70.054688 337.5 Z M 70.054688 236 " clip-rule="nonzero"/></clipPath></defs><g clip-path="url(#ed804f9204)"><path fill="#815f4e" d="M 298.820312 67.039062 C 302.425781 68.003906 304.933594 71.269531 304.933594 75.003906 L 304.933594 236.632812 L 188.304688 323.207031 L 70.054688 236.632812 L 70.054688 75.023438 C 70.054688 71.28125 72.578125 68.007812 76.195312 67.054688 L 186.1875 38.066406 C 187.574219 37.699219 189.03125 37.703125 190.417969 38.070312 Z M 188.304688 68.675781 L 220.203125 129.484375 L 286.300781 161.3125 L 270.75 169.074219 L 220.417969 194.195312 L 188.304688 258.277344 L 155.5625 193.933594 L 105.589844 169.074219 L 89.988281 161.3125 L 155.777344 129.738281 C 155.777344 129.738281 175.601562 92.519531 188.304688 68.675781 Z M 188.304688 68.675781 " fill-opacity="1" fill-rule="evenodd"/></g><g clip-path="url(#edb4727899)"><path fill="#744e3b" d="M 304.933594 236.632812 L 188.304688 323.207031 L 188.304688 337.492188 L 301.507812 255.980469 C 303.660156 254.433594 304.933594 251.941406 304.933594 249.292969 Z M 304.933594 236.632812 " fill-opacity="1" fill-rule="nonzero"/></g><g clip-path="url(#0edbfa57be)"><path fill="#744e3b" d="M 188.304688 323.207031 L 70.054688 236.632812 L 70.054688 249.257812 C 70.054688 251.929688 71.347656 254.433594 73.523438 255.976562 L 188.304688 337.492188 Z M 188.304688 323.207031 " fill-opacity="1" fill-rule="nonzero"/></g><path fill="#744e3b" d="M 155.777344 129.738281 L 89.988281 161.3125 L 105.589844 169.074219 L 144.59375 150.054688 Z M 155.777344 129.738281 " fill-opacity="1" fill-rule="nonzero"/><path fill="#744e3b" d="M 177.09375 115.335938 L 155.777344 129.738281 L 144.59375 150.054688 L 164.09375 140.53125 Z M 177.09375 115.335938 " fill-opacity="1" fill-rule="nonzero"/><path fill="#744e3b" d="M 188.304688 68.675781 C 175.601562 92.519531 155.777344 129.738281 155.777344 129.738281 L 177.09375 115.335938 L 188.304688 92.484375 C 188.304688 92.484375 188.304688 79.832031 188.304688 68.675781 Z M 188.304688 68.675781 " fill-opacity="1" fill-rule="nonzero"/><path fill="#744e3b" d="M 220.203125 129.484375 L 188.304688 68.675781 C 188.304688 79.832031 188.304688 92.484375 188.304688 92.484375 L 199.195312 115.335938 Z M 220.203125 129.484375 " fill-opacity="1" fill-rule="nonzero"/><path fill="#744e3b" d="M 230.828125 150.054688 L 220.203125 129.484375 L 199.195312 115.335938 L 210.894531 140.53125 Z M 230.828125 150.054688 " fill-opacity="1" fill-rule="nonzero"/><path fill="#744e3b" d="M 286.300781 161.3125 L 220.203125 129.484375 L 230.828125 150.054688 L 270.75 169.074219 Z M 286.300781 161.3125 " fill-opacity="1" fill-rule="nonzero"/></svg>